<?xml version="1.0" encoding="utf-8"?>
<!-- Svg Vector Icons : http://www.onlinewebfonts.com/icon -->
<!DOCTYPE svg PUBLIC "-//W3C//DTD SVG 1.1//EN" "http://www.w3.org/Graphics/SVG/1.1/DTD/svg11.dtd">
<svg version="1.1" xmlns="http://www.w3.org/2000/svg" xmlns:xlink="http://www.w3.org/1999/xlink" x="0px" y="0px" viewBox="0 0 256 256" enable-background="new 0 0 256 256" xml:space="preserve">
<metadata> Svg Vector Icons : http://www.onlinewebfonts.com/icon </metadata>
<g><g><path fill="#fff" d="M107.8,62.5h40v13.7h-40V62.5L107.8,62.5z"/><path fill="#fff" d="M108.2,114.2h13.7v53.4h-13.7V114.2z"/><path fill="#fff" d="M133.7,114.2h13.7v53.4h-13.7V114.2L133.7,114.2z"/><path fill="#fff" d="M67.8,102h14.8v91.5h90.3V102h15.3V88.3H67.8V102z M96.3,102h62.9v77.8H96.3V102z"/><path fill="#fff" d="M128,10C62.8,10,10,62.8,10,128c0,65.2,52.8,118,118,118c65.2,0,118-52.8,118-118C246,62.8,193.2,10,128,10z M128,235.3c-59.2,0-107.3-48-107.3-107.3c0-59.2,48-107.3,107.3-107.3c59.2,0,107.3,48,107.3,107.3C235.3,187.2,187.2,235.3,128,235.3z"/></g></g>
</svg>